<svg width="461" height="273" viewBox="0 0 461 273" fill="none" xmlns="http://www.w3.org/2000/svg">
<path d="M221.76 90.4186C244.627 90.4186 263.16 70.1804 263.16 45.2093C263.16 20.2382 244.627 0 221.76 0C198.893 0 180.36 20.2382 180.36 45.2093C180.36 70.1804 198.893 90.4186 221.76 90.4186ZM250.74 101.721H245.339C238.158 105.324 230.169 107.372 221.76 107.372C213.351 107.372 205.394 105.324 198.181 101.721H192.78C168.781 101.721 148 120.095 148 146.302L163.5 151C172.47 155.395 177.79 155.233 184 159L194 164.5L206 173L214.5 180.5L220.38 188.372L228.66 204.07L233 222.5L236 199L239 189C246.019 178.953 251.46 166.663 262.5 158.5L275.5 148.5L288 138.5C288 112.293 274.739 101.721 250.74 101.721Z" fill="#EAEEE6"/>
<path d="M124 165.5L117 170.5" stroke="#EAEEE6"/>
<path d="M129 166.5L125 170" stroke="#EAEEE6"/>
<path d="M140.5 169.5L137 172.5" stroke="#EAEEE6"/>
<path d="M133.5 167.5L131.5 169.5" stroke="#EAEEE6"/>
<path d="M119.5 164.5L118 166" stroke="#EAEEE6"/>
<path d="M113 163L106.5 166.5" stroke="#EAEEE6"/>
<path d="M266.5 222L268 224L250.5 240L268 225.5L274 222L277 220.571M364 202.5L374 207.5L387.5 217L399.5 225.5L387.5 220.5L377 218L344.5 212.5H334H320M268 222V223L266.5 226L274 221.5L277 220.571M277 220.571L284.5 217L294 214.5L303 212.5H316.5H320M277 220.571L281.5 218L292.5 214.5L310 212L320 212.5" stroke="#EAEEE6"/>
<path d="M393.5 118.5L390.5 117L365 114L345 108L334 114L320.5 120.5L287.5 139L256 164L245 176.5L237 193.5L233.5 201V213V229.5V245L234.5 248M393.5 118.5H398.5L387.5 125L374.5 130.5L365 135L351 142L335.5 150.5L314.5 162L302 170L285.5 181.5L273 193.5L263.5 203.5L253.5 217.5L241 240L237 249.5L241 236L246.5 224.5L251.5 216L257 206.5L270.5 190.5L286 175.5L310 160L348.5 139L374.5 125L387.5 120.5L393.5 118.5Z" stroke="#EAEEE6"/>
<path d="M351.5 142L355.5 145" stroke="#EAEEE6"/>
<path d="M345.5 145.5L351 149" stroke="#EAEEE6"/>
<path d="M333.5 152L345.5 160" stroke="#EAEEE6"/>
<path d="M340.5 148.5L345 153" stroke="#EAEEE6"/>
<path d="M327.5 155L333 160" stroke="#EAEEE6"/>
<path d="M320.5 159L324 162" stroke="#EAEEE6"/>
<path d="M324.5 173L336.5 184" stroke="#EAEEE6"/>
<path d="M339.5 169.5L345 175.5" stroke="#EAEEE6"/>
<path d="M316 177L320.5 183" stroke="#EAEEE6"/>
<path d="M301.5 183.5L306 188.5" stroke="#EAEEE6"/>
<path d="M331 170.5L335 174.5" stroke="#EAEEE6"/>
<path d="M308.5 180.5L313.5 187" stroke="#EAEEE6"/>
<path d="M364 136L402.5 149L405.5 150.5L366 160L341.5 166.5L322.5 173.5L298 185L281.5 196L265.5 210.5L251.5 228.5L246.5 236.5L241 247.5" stroke="#EAEEE6"/>
<path d="M331.5 170.5L369 165.5L425.5 190.5H369L339.5 193.5L317.5 197L293.5 205L273 215.5L252 234.5L242.5 249.5" stroke="#EAEEE6"/>
<path d="M267.5 222L291 212.5L309 208.5L334.5 204L362.5 202H419H424.5L412.5 192L411.5 191" stroke="#EAEEE6"/>
<path d="M266.5 222L295 211.5L305 209.5L342 210L348 211L374.5 217L378 218L380 218.5L380.5 219L360.5 215L344.5 212.5H301L286.5 216L268.5 224L251 239.5L261 226.5L266.5 222Z" fill="#EAEEE6"/>
<path d="M266.5 222L295 211.5L305 209.5L342 210L348 211L374.5 217L378 218L380 218.5L380.5 219M266.5 222L268.5 224M266.5 222L261 226.5L251 239.5L268.5 224M380.5 219L360.5 215L344.5 212.5H301L286.5 216L268.5 224M380.5 219L388 224L406 237H401.5L386 232.5L364 226L334.5 220.5L312.5 217L296.5 218.5L285 222L267 230L252 241" stroke="#EAEEE6"/>
<path d="M350.5 202.5L352.5 207.5" stroke="#EAEEE6"/>
<path d="M341.5 203.5L344.5 207.5" stroke="#EAEEE6"/>
<path d="M346 203.5L347 205.5" stroke="#EAEEE6"/>
<path d="M397.5 235.5L420.5 251L425 253L426 257L434 257.5L436 261" stroke="#EAEEE6"/>
<path d="M285 231L269 235.5L259 241.25L280 237.5L291 235.5H319.5L361 237.5L385.5 242.5L401.5 247L421 251.5L405.5 245L383.5 239.5L357 233.5L333.5 231L310.5 229L285 231Z" fill="#EAEEE6"/>
<path d="M249 247L259 241.25M259 241.25L280 237.5L291 235.5H319.5L361 237.5L385.5 242.5L401.5 247L421 251.5L405.5 245L383.5 239.5L357 233.5L333.5 231L310.5 229L285 231L269 235.5L259 241.25Z" stroke="#EAEEE6"/>
<path d="M270 243C270 243 255.038 248.035 247.5 253.5L263 248L276.5 244.5L309 243L344.5 248L369.5 250.5C375.167 251.667 386.9 254 388.5 254C390.1 254 404.833 255.333 412 256L427 257L423.5 255.5L411.5 253.5L396 249L363.5 243L351 240L331 238H316.5H294C283.593 239.845 270 243 270 243Z" fill="#EAEEE6" stroke="#EAEEE6"/>
<path d="M250 254V259L240.5 254C232.687 250.458 229.974 251.218 226 254C223.146 255.937 221.49 257.284 217.5 264.5L207 259H186H153.5L119.5 261H60.5L10.5 264.5L7 261L1 264.5L7 271.5H20.5L130 269.5L166 266.5H211L217.5 271.5L240.5 269.5L254.5 266.5L262.5 261L315.5 266.5H347.5H391L421 269.5L449.5 271.5H459.5L456.5 266.5H449.5L434.5 261L425.5 259H396.5L368 256.5H329L292 254L272.5 250.5H258.5C254.753 249.663 252.869 250.302 250 254Z" fill="#EAEEE6" stroke="#EAEEE6"/>
<path d="M75.8193 256.5H58.8193L68.8193 254L88.8193 250.5L113.319 246L144.319 244.5L181.319 247L204.819 250.5L220.319 259L218.319 261L201.819 254H177.819L75.8193 256.5Z" fill="#EAEEE6"/>
<path d="M58.8193 256.5L39.8193 259H18.8193H13.3193L9.31934 262.5C7.31934 260.5 9.6526 265.833 9.31926 266.5M58.8193 256.5H75.8193L177.819 254H201.819L218.319 261L220.319 259L204.819 250.5L181.319 247L144.319 244.5L113.319 246L88.8193 250.5L68.8193 254L58.8193 256.5Z" stroke="#EAEEE6"/>
<path d="M18.5 258.5C18.5 258.5 19.1575 256.225 20 255C21.5954 252.679 26 251 26 251L32 249.5L51.5 246L80.5 241.5L120.5 235L154.5 232.5L185 235L211 244L221 249.5L226.5 255" stroke="#EAEEE6"/>
<path d="M227 243L223 240.5L200.719 229L180 224.5C163.273 222.316 153.681 222.102 136 224.5C115.263 224.549 109.169 226.179 98 229L59.5 240.5L99.5 232C112.516 230.235 121.302 229.253 141 227.5C167.108 226.516 174.693 227.084 182.5 229L227 246.5V243Z" fill="#EAEEE6"/>
<path d="M26.5 250.5L32.5 243C36.7962 239.796 39.46 238.375 45 237L57 234L102 224.5L139 219H169L192 224.5L200.719 229M200.719 229L223 240.5L227 243V246.5L182.5 229C174.693 227.084 167.108 226.516 141 227.5C121.302 229.253 112.516 230.235 99.5 232L59.5 240.5L98 229C109.169 226.179 115.263 224.549 136 224.5C153.681 222.102 163.273 222.316 180 224.5L200.719 229Z" stroke="#EAEEE6"/>
<path d="M48.5 235.5C58.7519 226.502 64.4899 221.449 76 213.5C84.9204 206.122 89.2046 204.096 96.5 201.5C103.304 197.711 107.904 195.85 119 193.5C127.708 190.843 133.373 190.021 144 189H157.5C172.768 191.372 180.533 194.354 193.5 201.5C204.204 209.621 209.673 212.835 212 217.5C218.756 223.796 219.755 227.555 222.5 233L227.5 242.5" stroke="#EAEEE6"/>
<path d="M134 190.5L132.5 192" stroke="#EAEEE6"/>
<path d="M136 144.5L130 150.5" stroke="#EAEEE6"/>
<path d="M124.25 141.5L117.25 148.5" stroke="#EAEEE6"/>
<path d="M119 141.5L109 147.5" stroke="#EAEEE6"/>
<path d="M193.5 201.5L212 216L215.321 221.5L220.903 230L222.933 235L227.5 242.5V245.5" stroke="#EAEEE6"/>
<path d="M194 216.5L222 233L226.5 243L198.5 228L169.5 219H141L104 223L60.5 233L87 223C107.561 215.513 119.396 212.835 141 210.5C161.748 209.73 173.358 210.589 194 216.5Z" fill="#EAEEE6" stroke="#EAEEE6"/>
<path d="M229.5 245.002C229.5 245.002 223.745 223.287 212 210.502C192.7 188.451 180.219 181.881 157 173.502C121.786 163.753 102.591 160.044 69 155.502L99 140C117.493 139.948 126.184 142.19 142.5 145.5C157.843 149.085 166.277 152.091 176 155.502C186.815 160.505 192.524 163.29 198.5 168.002C214.892 179.377 218.168 182.756 220.5 187.002C225.394 196.513 228.625 202.585 229.5 206.002C233.303 215.091 233.818 217.914 233 220.502V243.002" stroke="#EAEEE6"/>
<path d="M101.5 161L72.5 167L63.5 169L119 177.5C130.064 179.447 135.519 179.244 151 184C161.828 186.565 166.932 189.484 175.5 192L193.5 201.5" stroke="#EAEEE6"/>
<path d="M160 189.5L153.5 201.5" stroke="#EAEEE6"/>
<path d="M148 189.5L140.5 201" stroke="#EAEEE6"/>
<path d="M153 189.5L149.5 196" stroke="#EAEEE6"/>
<path d="M168.5 191L166 196" stroke="#EAEEE6"/>
<path d="M176 194L173 199" stroke="#EAEEE6"/>
<path d="M141 189.5L137.5 193" stroke="#EAEEE6"/>
<path d="M128.5 143L125.5 146" stroke="#EAEEE6"/>
</svg>
